<svg width="22" height="22" viewBox="0 0 22 22" fill="none" xmlns="http://www.w3.org/2000/svg">
<path d="M18.5632 5.5H15.125V4.8125C15.1244 4.26568 14.9069 3.74144 14.5202 3.35478C14.1336 2.96812 13.6093 2.75063 13.0625 2.75H8.9375C8.39068 2.75063 7.86644 2.96812 7.47978 3.35478C7.09312 3.74144 6.87563 4.26568 6.875 4.8125V5.5H3.43817C3.07363 5.50042 2.72413 5.64542 2.46636 5.90319C2.20859 6.16096 2.06359 6.51046 2.06317 6.875V13.7367C2.06309 13.7412 2.0625 13.7455 2.0625 13.75C2.0625 13.7545 2.06309 13.7588 2.06317 13.7633V17.875C2.06359 18.2395 2.20859 18.589 2.46636 18.8468C2.72413 19.1046 3.07363 19.2496 3.43817 19.25H18.5632C18.9277 19.2496 19.2772 19.1046 19.535 18.8468C19.7928 18.589 19.9378 18.2395 19.9382 17.875V6.875C19.9378 6.51046 19.7928 6.16096 19.535 5.90319C19.2772 5.64542 18.9277 5.50042 18.5632 5.5ZM8.25 4.8125C8.25021 4.63023 8.32271 4.45548 8.45159 4.32659C8.58048 4.19771 8.75523 4.12521 8.9375 4.125H13.0625C13.2448 4.12521 13.4195 4.19771 13.5484 4.32659C13.6773 4.45548 13.7498 4.63023 13.75 4.8125V5.5H8.25V4.8125ZM18.5632 6.875L18.5637 13.0625H3.43817V6.875H18.5632ZM18.5632 17.875H3.43817V14.4375H18.5638L18.5641 17.875L18.5632 17.875Z" fill="#A0A0A0"/>
</svg>
